# xmcd
#
# Track frame offsets:
#	150
#	18185
#	31193
#	46071
#	61477
#	74068
#	86023
#	103732
#	118186
#	128791
#	143955
#	157279
#	170904
#
# Disc length: 2474 seconds
#
# Revision: 1
# Processed by: cddbd v1.5.2PL0 Copyright (c) Steve Scherf et al.
# Submitted via: audiograbber 1.83.01
#
DISCID=bf09a80d
DTITLE=Melinda Schneider - Stronger
DYEAR=2006
DGENRE=Country
TTITLE0=Big World Small World
TTITLE1=That Was The Plan
TTITLE2=Stronger
TTITLE3=Send Them Love
TTITLE4=Truly True Love
TTITLE5=In Your Head
TTITLE6=The Letting Go
TTITLE7=Rest Your Weary Mind
TTITLE8=Men In Trucks
TTITLE9=You Are Something Else
TTITLE10=Fifteen Again
TTITLE11=You Got Me
TTITLE12=Sometimes It Takes Balls To Be A Woman
EXTD=
EXTT0=
EXTT1=
EXTT2=
EXTT3=
EXTT4=
EXTT5=
EXTT6=
EXTT7=
EXTT8=
EXTT9=
EXTT10=
EXTT11=
EXTT12=
PLAYORDER=
